<?xml version="1.0" encoding="utf-8"?>
<!-- Generator: Adobe Illustrator 28.2.0, SVG Export Plug-In . SVG Version: 6.00 Build 0)  -->
<svg version="1.1" id="Layer_1" xmlns="http://www.w3.org/2000/svg" xmlns:xlink="http://www.w3.org/1999/xlink" x="0px" y="0px"
	 viewBox="0 0 4000 4000" style="enable-background:new 0 0 4000 4000;" xml:space="preserve">
<style type="text/css">
	
		.st0{clip-path:url(#SVGID_00000160158891763760245300000015486737962986726069_);fill:url(#SVGID_00000121238022128274096540000018066485541897139846_);}
	
		.st1{clip-path:url(#SVGID_00000077300232400803270230000016151433241310735281_);fill:url(#SVGID_00000100355317207563212570000015711337607539187357_);}
	
		.st2{clip-path:url(#SVGID_00000113341010971209131290000008914719883938660278_);fill:url(#SVGID_00000092418469670899677410000009681112536716344223_);}
	
		.st3{clip-path:url(#SVGID_00000109724410585387221430000017634504605026166964_);fill:url(#SVGID_00000168099162855093148220000014545865224853857948_);}
	.st4{filter:url(#Adobe_OpacityMaskFilter);}
	.st5{fill:url(#SVGID_00000020394210687826631500000010245705962573457579_);}
	.st6{mask:url(#SVGID_00000111906521483156987920000012401038606561001117_);fill-rule:evenodd;clip-rule:evenodd;fill:#990038;}
	.st7{fill:none;stroke:#231916;stroke-width:0.5669;stroke-miterlimit:22.9256;}
	
		.st8{clip-path:url(#SVGID_00000088818016117014316680000013087354194311043969_);fill:url(#SVGID_00000047045880928463165040000009966583489501478302_);}
	
		.st9{clip-path:url(#SVGID_00000094595665517604654000000004478351458230892735_);fill:url(#SVGID_00000140693517609931823850000012025875560168401311_);}
	
		.st10{clip-path:url(#SVGID_00000157290450053850437190000009060181680161950595_);fill:url(#SVGID_00000105421284335906452830000000187441809075956608_);}
	
		.st11{clip-path:url(#SVGID_00000040569621626606517650000013812320190227186308_);fill:url(#SVGID_00000067934321598550656820000002943856907138277297_);}
	
		.st12{clip-path:url(#SVGID_00000063618251148391118590000014157228970101467547_);fill:url(#SVGID_00000117636331996277105630000011503134702036315832_);}
	
		.st13{clip-path:url(#SVGID_00000179623156981155073340000001925375310595258274_);fill:url(#SVGID_00000080192082164229916890000001584676198071999397_);}
	
		.st14{clip-path:url(#SVGID_00000170257316377227569510000003554609414520813212_);fill:url(#SVGID_00000044882508035990695860000015437049720077976221_);}
	
		.st15{clip-path:url(#SVGID_00000134952370746121454580000003709404546931249823_);fill:url(#SVGID_00000183928163526637362300000017537688157741405372_);}
	
		.st16{clip-path:url(#SVGID_00000165933791359805981270000002412753556664334783_);fill:url(#SVGID_00000090284532412938388770000016947197662758042022_);}
	
		.st17{clip-path:url(#SVGID_00000122705497708476349580000002872394226644418495_);fill:url(#SVGID_00000064316979044464616680000016354661594836244870_);}
	.st18{filter:url(#Adobe_OpacityMaskFilter_00000044145681462603926750000018184635340474347930_);}
	.st19{fill:url(#SVGID_00000179631747401522878610000009460450676435058852_);}
	.st20{mask:url(#SVGID_00000113351701484818002060000004230017349638321549_);fill-rule:evenodd;clip-rule:evenodd;fill:#102770;}
</style>
<g>
	<g>
		<defs>
			<path id="SVGID_1_" d="M1159.79,3364.66c645.4-149.66,992.01-466.26,1132.72-901.22c-197.98,27.08-287.5,71.6-374.19,87.53
				C1755.76,2949.46,1425.74,3217.89,1159.79,3364.66"/>
		</defs>
		<clipPath id="SVGID_00000085240258307462814100000008704467306867866512_">
			<use xlink:href="#SVGID_1_"  style="overflow:visible;"/>
		</clipPath>
		
			<linearGradient id="SVGID_00000175312990468334389280000013956335059387290752_" gradientUnits="userSpaceOnUse" x1="1899.6394" y1="2783.2397" x2="769.3358" y2="3635.498">
			<stop  offset="0" style="stop-color:#00478F"/>
			<stop  offset="1" style="stop-color:#29C4FF"/>
		</linearGradient>
		
			<rect x="1159.79" y="2463.44" style="clip-path:url(#SVGID_00000085240258307462814100000008704467306867866512_);fill:url(#SVGID_00000175312990468334389280000013956335059387290752_);" width="1132.72" height="901.22"/>
	</g>
	<g>
		<defs>
			<path id="SVGID_00000169547168780885040300000015497430369270564280_" d="M1425.21,3631.58
				c588.98-303.39,847.35-695.33,877.08-1151.51C2117,2554.88,2041.14,2620,1961,2656.7
				C1901.14,3082.89,1647.04,3424.06,1425.21,3631.58"/>
		</defs>
		<clipPath id="SVGID_00000114792803070062383910000000312988240276296332_">
			<use xlink:href="#SVGID_00000169547168780885040300000015497430369270564280_"  style="overflow:visible;"/>
		</clipPath>
		
			<linearGradient id="SVGID_00000128472891114375346900000016489496707359456164_" gradientUnits="userSpaceOnUse" x1="2078.4265" y1="2769.2795" x2="1143.9677" y2="4016.5935">
			<stop  offset="0" style="stop-color:#00478F"/>
			<stop  offset="1" style="stop-color:#29C4FF"/>
		</linearGradient>
		
			<rect x="1425.21" y="2480.07" style="clip-path:url(#SVGID_00000114792803070062383910000000312988240276296332_);fill:url(#SVGID_00000128472891114375346900000016489496707359456164_);" width="877.08" height="1151.51"/>
	</g>
	<g>
		<defs>
			<path id="SVGID_00000074444269774765046800000006897578106586597027_" d="M1814.67,3739.08
				c406.83-376.05,527.46-749.6,449.5-1123.84c-132.6,101.68-179.18,171.1-235.56,218.58
				C2075.59,3190.62,1947.06,3522.3,1814.67,3739.08"/>
		</defs>
		<clipPath id="SVGID_00000002355554771064281290000016195758155138088363_">
			<use xlink:href="#SVGID_00000074444269774765046800000006897578106586597027_"  style="overflow:visible;"/>
		</clipPath>
		
			<linearGradient id="SVGID_00000098941034677984168040000009347810434003942292_" gradientUnits="userSpaceOnUse" x1="2184.8828" y1="2762.1929" x2="1909.3738" y2="3835.8518">
			<stop  offset="0" style="stop-color:#00478F"/>
			<stop  offset="1" style="stop-color:#29C4FF"/>
		</linearGradient>
		
			<rect x="1814.67" y="2615.24" style="clip-path:url(#SVGID_00000002355554771064281290000016195758155138088363_);fill:url(#SVGID_00000098941034677984168040000009347810434003942292_);" width="527.46" height="1123.84"/>
	</g>
	<g>
		<defs>
			<path id="SVGID_00000130647740203342286010000002271593409042103179_" d="M375.76,1437.27
				c223.7-1042.07,1610.73,279.59,1813.86,671.34c0,0,450.33,892.33-116.76,1592.85c375.95-774.68-245.97-1107.95-798.31-1304.97
				c-616.33-219.85-522.98-675.8-739.72-785.33c-107.18-54.16-221.07,0.07-282.07,109.66
				C236.56,1624.93,245.21,1550.9,375.76,1437.27"/>
		</defs>
		<clipPath id="SVGID_00000139288189332589044760000015538221077190277542_">
			<use xlink:href="#SVGID_00000130647740203342286010000002271593409042103179_"  style="overflow:visible;"/>
		</clipPath>
		
			<linearGradient id="SVGID_00000032650607365539088090000016453235321060218759_" gradientUnits="userSpaceOnUse" x1="1305.5045" y1="594.7259" x2="1472.2971" y2="2421.0752">
			<stop  offset="0" style="stop-color:#FFCE4B"/>
			<stop  offset="1" style="stop-color:#D3226F"/>
		</linearGradient>
		
			<rect x="236.56" y="395.2" style="clip-path:url(#SVGID_00000139288189332589044760000015538221077190277542_);fill:url(#SVGID_00000032650607365539088090000016453235321060218759_);" width="2403.4" height="3306.25"/>
	</g>
	<defs>
		<filter id="Adobe_OpacityMaskFilter" filterUnits="userSpaceOnUse" x="252.77" y="1431.51" width="1982.52" height="2161.61">
			<feColorMatrix  type="matrix" values="1 0 0 0 0  0 1 0 0 0  0 0 1 0 0  0 0 0 1 0"/>
		</filter>
	</defs>
	
		<mask maskUnits="userSpaceOnUse" x="252.77" y="1431.51" width="1982.52" height="2161.61" id="SVGID_00000054974518896157875430000008786156229913438602_">
		<g class="st4">
			
				<linearGradient id="SVGID_00000110458685903980400550000013528053298938514097_" gradientUnits="userSpaceOnUse" x1="-579.6589" y1="3335.8899" x2="-2122.4583" y2="1326.059" gradientTransform="matrix(1 0 0 1 2282.2234 -226.2319)">
				<stop  offset="0" style="stop-color:#FFFFFF"/>
				<stop  offset="1" style="stop-color:#000000"/>
			</linearGradient>
			
				<rect x="252.77" y="1431.51" style="fill:url(#SVGID_00000110458685903980400550000013528053298938514097_);" width="1982.52" height="2161.61"/>
		</g>
	</mask>
	
		<path style="mask:url(#SVGID_00000054974518896157875430000008786156229913438602_);fill-rule:evenodd;clip-rule:evenodd;fill:#990038;" d="
		M2120.11,3593.12c269.22-697.95-319.68-1009.06-845.56-1196.64c-616.33-219.85-522.98-675.8-739.72-785.33
		c-107.18-54.16-221.07,0.07-282.07,109.66c0,0,219.22-708.94,1115.31,92.74C1368.08,1813.56,2612.23,2370.82,2120.11,3593.12"/>
	<path class="st7" d="M634.86,1712.16C1244.09,2304.93,1739.25,43.26,3436.4,278.09C1801.65,441.56,1877.04,2324.07,1012.08,2263.45
		"/>
	<g>
		<defs>
			<path id="SVGID_00000022527945969677345240000006465307218694351492_" d="M1562.98,2487.34
				c133.73-330.28,101.59-580.71-46.29-777.13c-49.31,95.49-87.63,176.92-107.43,219.99
				C1497.69,2156.85,1557.9,2386.32,1562.98,2487.34"/>
		</defs>
		<clipPath id="SVGID_00000101071199847660383370000006388711353750449073_">
			<use xlink:href="#SVGID_00000022527945969677345240000006465307218694351492_"  style="overflow:visible;"/>
		</clipPath>
		
			<linearGradient id="SVGID_00000164509718711009886810000003537103033118752413_" gradientUnits="userSpaceOnUse" x1="1544.2842" y1="2017.5233" x2="1615.369" y2="2681.332">
			<stop  offset="0" style="stop-color:#00478F"/>
			<stop  offset="1" style="stop-color:#51F4E9"/>
		</linearGradient>
		
			<rect x="1409.26" y="1710.21" style="clip-path:url(#SVGID_00000101071199847660383370000006388711353750449073_);fill:url(#SVGID_00000164509718711009886810000003537103033118752413_);" width="287.45" height="777.13"/>
	</g>
	<g>
		<defs>
			<path id="SVGID_00000139979306636192029920000006561015723634608259_" d="M1817.39,2536.81
				c135.95-482.09,52.46-827.04-184.44-1078.7c-54.18,141.02-95.17,260.7-116.2,323.94
				C1675.23,2085.09,1794.71,2396.45,1817.39,2536.81"/>
		</defs>
		<clipPath id="SVGID_00000183225118643379084090000004813192938033185172_">
			<use xlink:href="#SVGID_00000139979306636192029920000006561015723634608259_"  style="overflow:visible;"/>
		</clipPath>
		
			<linearGradient id="SVGID_00000165950812209510232310000017183927074660434570_" gradientUnits="userSpaceOnUse" x1="1711.9479" y1="1832.8104" x2="1860.585" y2="2892.7805">
			<stop  offset="0" style="stop-color:#00478F"/>
			<stop  offset="1" style="stop-color:#29C4FF"/>
		</linearGradient>
		
			<rect x="1516.74" y="1458.11" style="clip-path:url(#SVGID_00000183225118643379084090000004813192938033185172_);fill:url(#SVGID_00000165950812209510232310000017183927074660434570_);" width="436.6" height="1078.7"/>
	</g>
	<g>
		<defs>
			<path id="SVGID_00000069394708957627669660000006408202796790648493_" d="M2185.32,2524.55
				c72.21-549.28-73.98-913.59-373.27-1151.41c-36.9,162.97-78.13,271.33-91.1,343.89
				C1942.57,2023.55,2138.2,2374.51,2185.32,2524.55"/>
		</defs>
		<clipPath id="SVGID_00000025434988740037854280000009709254038164604546_">
			<use xlink:href="#SVGID_00000069394708957627669660000006408202796790648493_"  style="overflow:visible;"/>
		</clipPath>
		
			<linearGradient id="SVGID_00000087413544114414475610000017509632836611592347_" gradientUnits="userSpaceOnUse" x1="1742.2245" y1="1457.1222" x2="2274.0867" y2="2515.8779">
			<stop  offset="0" style="stop-color:#003780"/>
			<stop  offset="1" style="stop-color:#B222D3"/>
		</linearGradient>
		
			<rect x="1720.95" y="1373.14" style="clip-path:url(#SVGID_00000025434988740037854280000009709254038164604546_);fill:url(#SVGID_00000087413544114414475610000017509632836611592347_);" width="536.59" height="1151.41"/>
	</g>
	<g>
		<defs>
			<path id="SVGID_00000117650497447442835640000018252950075510599311_" d="M2472.65,2507.87
				c99.11-624.82-120.78-993.71-540.32-1208.01c-32.39,59.67-62.59,117.53-89.83,171.12
				C2137.39,1816.4,2418.04,2316.28,2472.65,2507.87"/>
		</defs>
		<clipPath id="SVGID_00000113339617579480885360000014908022775815039635_">
			<use xlink:href="#SVGID_00000117650497447442835640000018252950075510599311_"  style="overflow:visible;"/>
		</clipPath>
		
			<linearGradient id="SVGID_00000029754258522172557690000012463992249884609423_" gradientUnits="userSpaceOnUse" x1="2231.0596" y1="1919.8429" x2="2901.7661" y2="2367.6831">
			<stop  offset="0" style="stop-color:#4E046D"/>
			<stop  offset="1" style="stop-color:#FF8BC7"/>
		</linearGradient>
		
			<rect x="1842.5" y="1299.86" style="clip-path:url(#SVGID_00000113339617579480885360000014908022775815039635_);fill:url(#SVGID_00000029754258522172557690000012463992249884609423_);" width="729.27" height="1208.01"/>
	</g>
	<g>
		<defs>
			<path id="SVGID_00000036956702270775188870000003410329652427679151_" d="M3026.48,2313.05
				c-119.84-719.5-516.02-1010.06-1079.06-1052.47c-24.18,43.74-47.21,86.76-68.77,128.02
				C2329.35,1615.27,2890.82,2114.78,3026.48,2313.05"/>
		</defs>
		<clipPath id="SVGID_00000075854320417280865030000014282118691272545188_">
			<use xlink:href="#SVGID_00000036956702270775188870000003410329652427679151_"  style="overflow:visible;"/>
		</clipPath>
		
			<linearGradient id="SVGID_00000073696110840091062160000016609881240085846158_" gradientUnits="userSpaceOnUse" x1="1945.6748" y1="1331.8186" x2="3306.4214" y2="2553.2568">
			<stop  offset="0" style="stop-color:#4E046D"/>
			<stop  offset="1" style="stop-color:#FF8BC7"/>
		</linearGradient>
		
			<rect x="1878.65" y="1260.58" style="clip-path:url(#SVGID_00000075854320417280865030000014282118691272545188_);fill:url(#SVGID_00000073696110840091062160000016609881240085846158_);" width="1147.84" height="1052.47"/>
	</g>
	<g>
		<defs>
			<path id="SVGID_00000049943942818375001860000003637853004196774787_" d="M3518.15,1967.15
				c-367.57-737.94-885.24-944.35-1499.34-831.71c-36.97,62.62-72.28,125.92-105,186.8
				C2499.84,1424.89,3297.87,1791.33,3518.15,1967.15"/>
		</defs>
		<clipPath id="SVGID_00000001622425279365273290000008206743518592754356_">
			<use xlink:href="#SVGID_00000049943942818375001860000003637853004196774787_"  style="overflow:visible;"/>
		</clipPath>
		
			<linearGradient id="SVGID_00000179634970709554381140000014416172812960737439_" gradientUnits="userSpaceOnUse" x1="2572.5901" y1="1421.9392" x2="3595.4651" y2="1942.9717">
			<stop  offset="0" style="stop-color:#B91C58"/>
			<stop  offset="1" style="stop-color:#F95C97"/>
		</linearGradient>
		
			<rect x="1913.81" y="1022.81" style="clip-path:url(#SVGID_00000001622425279365273290000008206743518592754356_);fill:url(#SVGID_00000179634970709554381140000014416172812960737439_);" width="1604.34" height="944.35"/>
	</g>
	<g>
		<defs>
			<path id="SVGID_00000176025250230271002230000018426818106644378302_" d="M3749.11,1548.06
				c-481.75-676.43-1029.75-796.42-1623.72-582.93c-41.79,62.54-82.76,129.19-121.72,196.17
				C2600.13,1155.05,3495.7,1404,3749.11,1548.06"/>
		</defs>
		<clipPath id="SVGID_00000090256990384886620120000013240087752226378417_">
			<use xlink:href="#SVGID_00000176025250230271002230000018426818106644378302_"  style="overflow:visible;"/>
		</clipPath>
		
			<linearGradient id="SVGID_00000172424249689458880110000003364946471812687526_" gradientUnits="userSpaceOnUse" x1="2303.979" y1="1043.0592" x2="3980.2258" y2="1355.7733">
			<stop  offset="0" style="stop-color:#B91C58"/>
			<stop  offset="1" style="stop-color:#FF8BC7"/>
		</linearGradient>
		
			<rect x="2003.67" y="751.64" style="clip-path:url(#SVGID_00000090256990384886620120000013240087752226378417_);fill:url(#SVGID_00000172424249689458880110000003364946471812687526_);" width="1745.44" height="796.42"/>
	</g>
	<g>
		<defs>
			<path id="SVGID_00000122681674468762188450000002037078420767926921_" d="M3651.27,1072.82
				c-487.15-494.59-955.19-517.01-1417.1-257.31c-43.84,54.52-87.91,116.96-130.87,183.15
				C2583.85,893.55,3414.02,984.07,3651.27,1072.82"/>
		</defs>
		<clipPath id="SVGID_00000077312350402626777870000004819969365643960220_">
			<use xlink:href="#SVGID_00000122681674468762188450000002037078420767926921_"  style="overflow:visible;"/>
		</clipPath>
		
			<linearGradient id="SVGID_00000129904265566324303320000016036626368058176384_" gradientUnits="userSpaceOnUse" x1="3568.7725" y1="935.4913" x2="2419.5991" y2="734.1036">
			<stop  offset="0" style="stop-color:#FFCE4B"/>
			<stop  offset="1" style="stop-color:#D3226F"/>
		</linearGradient>
		
			<rect x="2103.3" y="555.81" style="clip-path:url(#SVGID_00000077312350402626777870000004819969365643960220_);fill:url(#SVGID_00000129904265566324303320000016036626368058176384_);" width="1547.97" height="517.01"/>
	</g>
	<g>
		<defs>
			<path id="SVGID_00000171705699294271879860000018023742103982850219_" d="M1778.43,1620.71
				c319.64-542.54,687.39-1245.56,1657.98-1342.62c-989.66-136.94-1570.59,575.04-2003.76,1074.9
				c-309.66,357.34-543.81,606.28-797.78,359.17c84.23,140.59,125.56,372.58,377.21,551.29
				C1363.49,2288.08,1559.7,1991.97,1778.43,1620.71"/>
		</defs>
		<clipPath id="SVGID_00000154409053471858880470000007581977185827883908_">
			<use xlink:href="#SVGID_00000171705699294271879860000018023742103982850219_"  style="overflow:visible;"/>
		</clipPath>
		
			<linearGradient id="SVGID_00000113350210074279723850000012861083291938441359_" gradientUnits="userSpaceOnUse" x1="1565.2345" y1="2414.2778" x2="2269.927" y2="617.093">
			<stop  offset="0" style="stop-color:#00478F"/>
			<stop  offset="1" style="stop-color:#C11FDA"/>
		</linearGradient>
		
			<rect x="634.86" y="141.15" style="clip-path:url(#SVGID_00000154409053471858880470000007581977185827883908_);fill:url(#SVGID_00000113350210074279723850000012861083291938441359_);" width="2801.54" height="2146.93"/>
	</g>
	<g>
		<defs>
			<path id="SVGID_00000010284155705164929060000001901010171294929813_" d="M3753.29,661.7
				c-517.05-366.94-968.86-194.61-968.86-194.61c-248.52,130.57-438.04,313.35-594.32,512.72
				C2411.48,700.8,3481.44,611.61,3753.29,661.7"/>
		</defs>
		<clipPath id="SVGID_00000175303773419855990270000003719314413004942509_">
			<use xlink:href="#SVGID_00000010284155705164929060000001901010171294929813_"  style="overflow:visible;"/>
		</clipPath>
		
			<linearGradient id="SVGID_00000171700862933737707840000009224678683261880453_" gradientUnits="userSpaceOnUse" x1="3590.8157" y1="698.4213" x2="1986.5455" y2="539.993">
			<stop  offset="0" style="stop-color:#FFCE4B"/>
			<stop  offset="1" style="stop-color:#D3226F"/>
		</linearGradient>
		
			<rect x="2190.12" y="294.76" style="clip-path:url(#SVGID_00000175303773419855990270000003719314413004942509_);fill:url(#SVGID_00000171700862933737707840000009224678683261880453_);" width="1563.17" height="685.05"/>
	</g>
	<defs>
		
			<filter id="Adobe_OpacityMaskFilter_00000034084576965378300520000011333955920170742147_" filterUnits="userSpaceOnUse" x="753.57" y="277.97" width="2682.83" height="1986.91">
			<feColorMatrix  type="matrix" values="1 0 0 0 0  0 1 0 0 0  0 0 1 0 0  0 0 0 1 0"/>
		</filter>
	</defs>
	
		<mask maskUnits="userSpaceOnUse" x="753.57" y="277.97" width="2682.83" height="1986.91" id="SVGID_00000086656603501819575110000014170100396495817643_">
		<g style="filter:url(#Adobe_OpacityMaskFilter_00000034084576965378300520000011333955920170742147_);">
			
				<linearGradient id="SVGID_00000073691019165744597440000006389102941054060706_" gradientUnits="userSpaceOnUse" x1="-1852.2688" y1="2796.6953" x2="808.0389" y2="1178.8086" gradientTransform="matrix(1 0 0 1 2422.353 -597.8843)">
				<stop  offset="0" style="stop-color:#FFFFFF"/>
				<stop  offset="1" style="stop-color:#000000"/>
			</linearGradient>
			
				<rect x="753.57" y="277.97" style="fill:url(#SVGID_00000073691019165744597440000006389102941054060706_);" width="2682.83" height="1986.91"/>
		</g>
	</mask>
	
		<path style="mask:url(#SVGID_00000086656603501819575110000014170100396495817643_);fill-rule:evenodd;clip-rule:evenodd;fill:#102770;" d="
		M1632.94,1458.11c-554.58,854.29-879.38,501.86-879.37,501.86c52.78,101.93,126.87,209.99,258.51,303.48
		c351.42,24.63,547.62-271.48,766.35-642.74c319.64-542.54,687.39-1245.56,1657.98-1342.62
		C2306.55,264.59,1632.94,1458.11,1632.94,1458.11"/>
</g>
</svg>
